# xmcd
#
# Track frame offsets: 
#        150
#        19462
#        37202
#        48497
#        67077
#        87315
#        106807
#        122480
#        143712
#        165267
#        191715
#        233382
#
# Disc length: 3382 seconds
#
# Revision: 14
# Processed by: cddbd v1.5.2PL0 Copyright (c) Steve Scherf et al.
# Submitted via: ExactAudioCopyFreeDBPlugin 1.0
#
DISCID=9e0d340c
DTITLE=Jaguar Wright - Denials Delusions And Decisions
DYEAR=2002
DGENRE=R&B
TTITLE0=The What If's
TTITLE1=Country Song
TTITLE2=Stay
TTITLE3=Love Need And Want You
TTITLE4=Same Shit Different Day Part 1
TTITLE5=Ain't Nobody Playin' Feat. Black Thought
TTITLE6=I Can't Wait Feat. Bilal
TTITLE7=I Don't Know Feat. Black Thought
TTITLE8=2 Too Many
TTITLE9=Lineage
TTITLE10=Self Love
TTITLE11=Same Shi*t Different Day Part 2
EXTD=YEAR: 2002
EXTT0=
EXTT1=
EXTT2=
EXTT3=
EXTT4=
EXTT5=
EXTT6=
EXTT7=
EXTT8=
EXTT9=
EXTT10=
EXTT11=
PLAYORDER=
